<svg width="74" height="84" viewBox="0 0 74 84" fill="none" xmlns="http://www.w3.org/2000/svg">
<path d="M18.8314 28.0154C18.6672 28.0418 18.5051 28.0793 18.3459 28.1274C17.5036 28.3171 16.753 28.7928 16.222 29.4736C15.6909 30.1545 15.4123 30.9983 15.4334 31.8615V39.3296C15.4334 40.3199 15.8268 41.2697 16.527 41.97C17.2273 42.6703 18.1771 43.0637 19.1674 43.0637C20.1578 43.0637 21.1075 42.6703 21.8078 41.97C22.5081 41.2697 22.9015 40.3199 22.9015 39.3296V31.8615C22.9196 31.3321 22.8248 30.805 22.6236 30.3152C22.4223 29.8253 22.1192 29.3838 21.7342 29.02C21.3493 28.6563 20.8914 28.3786 20.3909 28.2054C19.8904 28.0322 19.3588 27.9674 18.8314 28.0154ZM9.27213 35.5955C8.88568 35.7254 8.55239 35.9783 8.32314 36.3154C8.09389 36.6525 7.98129 37.0554 8.00254 37.4626V39.3296C8.00254 44.856 12.0727 49.3743 17.3377 50.3078V54.2659H15.4707C13.417 54.2659 11.7366 55.9463 11.7366 58H26.7103C26.7103 55.9463 25.0299 54.2659 22.9762 54.2659H21.1092V50.3078C26.3742 49.4116 30.4443 44.856 30.4443 39.3296V37.4626C30.4443 36.9674 30.2476 36.4925 29.8975 36.1424C29.5474 35.7922 29.0725 35.5955 28.5773 35.5955C28.0821 35.5955 27.6073 35.7922 27.2571 36.1424C26.907 36.4925 26.7103 36.9674 26.7103 37.4626V39.3296C26.7103 43.4744 23.3869 46.7978 19.2421 46.7978C15.0973 46.7978 11.774 43.4744 11.774 39.3296V37.4626C11.7785 37.1864 11.7216 36.9126 11.6076 36.661C11.4935 36.4094 11.325 36.1863 11.1143 36.0077C10.9035 35.8291 10.6558 35.6995 10.3889 35.6282C10.122 35.5569 9.84258 35.5458 9.57085 35.5955C9.49624 35.591 9.42142 35.591 9.34681 35.5955H9.27213Z" fill="white"/>
<path d="M2 77V16.1176V7C2 4.23858 4.23858 2 7 2H56.093C57.4386 2 58.7275 2.54238 59.6682 3.50455L70.5752 14.6603C71.4886 15.5946 72 16.8492 72 18.1558V77C72 79.7614 69.7614 82 67 82H7C4.23858 82 2 79.7614 2 77Z" stroke="white" stroke-width="3" stroke-linecap="round"/>
<path d="M60 22V62" stroke="white" stroke-width="3" stroke-linecap="round"/>
<path d="M50.6666 30.6667V54" stroke="white" stroke-width="3" stroke-linecap="round"/>
<path d="M42 35.3333V48.6666" stroke="white" stroke-width="3" stroke-linecap="round"/>
</svg>
